<?xml version="1.0" encoding="UTF-8"?>
<svg id="Layer_2" data-name="Layer 2" xmlns="http://www.w3.org/2000/svg" viewBox="0 0 492.43 679.48">
  <defs>
    <style>
      .cls-1 {
        fill: #b37d4f;
      }

      .cls-1, .cls-2, .cls-3, .cls-4, .cls-5, .cls-6, .cls-7, .cls-8, .cls-9 {
        stroke-width: 0px;
      }

      .cls-2 {
        fill: #cea170;
      }

      .cls-3 {
        fill: #476078;
      }

      .cls-4 {
        fill: #744d2f;
      }

      .cls-5 {
        fill: #d9be94;
      }

      .cls-6 {
        fill: #eddcb7;
      }

      .cls-7 {
        fill: #ba8c5c;
      }

      .cls-8 {
        fill: #e17571;
      }

      .cls-9 {
        fill: #423023;
      }
    </style>
  </defs>
  <g id="Layer_1-2" data-name="Layer 1">
    <g>
      <path class="cls-9" d="M.05,415.06c-1.14-85.98,16.59-169.16,50.54-248.61,9.63-22.54,18.31-45.59,30.95-66.53,2.36-3.91,2.02-6.69-.62-10.33-19.61-27.03-6.59-71.1,24.58-85.39,22.66-10.39,43.38-.16,52.99,16.1,1.69,2.85,2.84,6.06,4.23,9.12,2.21,4.87,2.62,5.23,7.15,3.59,10.39-3.76,21-6.3,31.83-8.21,19.5-3.44,39.07-3.89,58.73-3.07,16.93.71,33.61,3.1,49.76,8.87,2.94,1.05,5.02.32,6.67-2.9,6.21-12.07,15.44-19.92,28.18-23.58,8.83-2.53,17.19-1.73,25.6,1.01,27.73,9.03,43.58,42.52,33.1,69.75-3.02,7.84-7.86,14.18-14.06,19.41-2.1,1.77-2.3,3.74-1.1,6.32,6.83,14.58,10.31,30.11,10.59,46.35.1,5.46,2.56,9.04,5.88,12.56,10.1,10.7,18.63,22.71,25.21,36.16,7.24,14.8,12.02,30.34,12.28,47.31.22,13.9-1.82,27.31-8.24,39.36-3.56,6.67-2.41,11.35,1.37,17.02,7.14,10.71,12.95,22.29,18.1,34.25,6.87,15.95,8.86,32.34,5.89,49.74-4.73,27.74-19.91,46.19-43.41,57.72-2.05,1.01-4.3,1.56-6.45,2.35-2.65.98-3.4,3.15-2.68,5.75,1.42,5.12,3.05,10.16,4.63,15.23.78,2.49,2.42,3.88,4.83,4.58,4.39,1.26,8.83,2.46,13.06,4.2,21.63,8.94,38.21,24.45,50.53,45.15,6.94,11.65,11.13,24.38,11.97,38.31,1.03,17.17-.4,33.95-5.67,50.32-7.85,24.39-22.73,41.71-45.05,51.8-12.26,5.54-25.11,9.03-38.17,11.06-23.05,3.58-46.24,6.45-69.58,5.88-14.59-.35-29.17-1.88-43.71-3.4-4.57-.48-8.76-.6-13.37.38-35.65,7.58-71.58,8.43-107.72,4.51-20.48-2.22-40.73-5.44-60.33-12.27-7.78-2.71-15.49-5.76-23.01-9.21-23.62-10.83-40.62-29.16-52.27-53.33-13.89-28.81-21.94-59.59-26.95-91.37C1.34,479.75-.12,448.21.05,415.06ZM343.2,363.81l.21-.21c1.62-.02,2.46-1.01,2.79-2.6,10.7-7.71,22.29-13.07,35.14-15.2,2.69-.45,5.3-1.47,7.95-2.19,1.9-.52,3.21-1.6,3.65-3.76,1.81-8.95,4.92-17.63,5.17-27.42-3.44-.37-6.56-.77-9.69-1.02-16.39-1.33-32.79-2.55-49.17-3.95-16.84-1.44-33.66-3.09-50.49-4.53-5-.43-10.04-.43-15.06-.69-3.31-.17-5.06,1.68-5.74,4.88-.5,2.37-.83,4.77-1.25,7.16-5.2,30.09-10.44,60.17-15.57,90.28-2.93,17.15-5.69,34.32-8.62,52.09,14.72,1.25,28.79,2.52,42.87,3.63,21.4,1.7,42.8,3.32,64.2,4.91,5.46.41,10.94.85,16.39.71,2.87-.07,3.05-2.99,3.01-5.49,1.77-2.48,1.68-5.47,1.97-8.33.87-8.65.87-8.74-7.21-12.76-8.33-4.15-16.05-9.25-22.3-16.49-10.03-11.63-13.5-25-8.72-40.31,1-3.2,2.14-6.35,3.22-9.52,1.58-2.15,3.16-4.29,4.74-6.44,1.58-.15,2.43-1.04,2.51-2.75ZM222.9,267.67c-2.99.22-6.45-1.28-8.42,2.64-5.47-.42-10.03,1.6-13.75,5.86-1.34.12-2.72.1-4.01.44-.51.14-.84,1.07-1.26,1.64.79.23,1.74.88,2.32.61,1.16-.54,2.1-1.59,3.14-2.43,5.39.22,9.85-2.14,13.83-5.75,3.1.19,5.88-.58,8.08-3.07.31-.17.66-.29.9-.53.14-.14.11-.47.15-.72l-1,1.31ZM379.45,472.05c-1.39,2.6-3,4.97-5.64,6.3-18.13-1.3-36.26-2.59-54.39-3.91-3.17-.23-6.34-.64-9.51-.88-19.48-1.52-38.96-3.05-58.44-4.48-2.24-.16-4.52.26-6.78.41-1.77-.4-3.57-.7-5.3-1.23-6.87-2.13-8.28-4.03-7.73-11.14.37-4.78,1.15-9.52,1.75-14.27,2.29-10.18,4.49-20.37,5-31.79-2.63.88-4.37,1.23-5.92,2-14.09,6.96-28.85,10.87-44.28,13.06-14.91,2.12-29.81,2.14-44.74,2.51-2.94-6.36-2.5-8.41,2.1-9.91,6.22-2.02,12.67-1.78,19.04-1.95,14.67-.38,29.11-2.44,43.35-6.09,9.34-2.39,18.36-5.74,26.73-10.93,4.57-2.83,7.71-6.48,8.57-12.34,1.26-8.64,2.77-17.24,4.45-25.8,1.34-6.84-1.45-11.3-6.71-14.41-3.58-2.12-7.26-4.16-11.08-5.7-9.25-3.72-16.59-9.94-22.74-18.08-9.08-12.01-9.37-12.64-22.92-8.5-15.83,4.84-31.62,3.54-47.55,2.23-1.35-.11-2.77-.38-3.97-1-1.66-.86-2.96-2.28-3-4.45-.05-2.94,1.74-4.55,4.13-4.83,2.68-.31,5.47-.18,8.14.22,16.6,2.51,32.58-.32,48.28-5.93,1.13-4.99-1.82-8.41-3.66-12.21-2.72-5.6-5.79-11.05-8.06-16.85-3.35-8.55-2.43-12.15,4.02-17.88,7.86-6.97,17.11-11,26.88-13.91,13.61-4.05,15.72-3.43,21.12,9.93,6.14,15.22,13.41,29.79,20.98,44.21,1.25,2.37,1.67,5.74,6.73,6.71-.7-.14-.36-.77.05-1.92,3.18-8.84,3.21-8.97,9.99-8.73,8.22.29,16.44.68,24.63,1.35,33.23,2.69,66.46,5.52,99.69,8.25,4.56.37,9.12.62,13.44,2.44,2.9,1.22,4.38,3.61,4.09,6.8-.35,3.86-1.05,7.69-1.82,11.48-1.45,7.12-3.89,14.14-4.38,21.32-.49,7.3-4.07,10.47-9.8,12.04-6.18,1.69-12.5,2.8-18.69,4.45-10.43,2.77-19.51,7.95-26.56,16.92-10.7,13.61-10.35,29.58,2.13,41.54,15.95,15.28,34.97,21.7,55.83,15.26,21.15-6.53,34.98-22.13,40.91-45,4.57-17.6,2.69-34.59-4.55-51.12-5.42-12.37-11.34-24.44-18.72-35.57-4.53-6.83-4.68-13.23-1.18-20.41,2.09-4.29,3.9-8.81,5.23-13.43,5.73-19.99,3.35-39.42-4.36-58.29-6.45-15.8-15.7-29.65-27.28-41.6-5.62-5.8-8.33-12.33-8.63-20.59-.61-16.76-4.52-32.58-12.7-47.14-3.38-6-2.87-7.75,3.26-11.38,13.75-8.15,18.48-20.87,16.81-36.76-2.16-20.67-21.69-38.34-41.18-37.11-11.59.73-21.06,5.96-27.03,17.1-1.99,3.71-1.67,5.69,1.8,8.67,1.76,1.51,3.82,2.63,5.74,3.93l.49,7.91c-2.65,2.91-5.5,3.09-8.51.68-16-12.76-34.92-15.91-53.99-18.15-19.08-2.23-38.28-2.31-57.31.15-23.07,2.99-46.19,6.46-65.22,22.83-2.4,2.06-4.99,2.05-7.58.32-1.48-4.64,1.03-8.03,3.2-11.52,1.14-.79,2.38-1.46,3.41-2.39,4.74-4.28,4.85-4.71,3.18-9.64-6.04-17.75-21.2-25.69-38.24-20.93-18.31,5.12-36.22,27.92-30.96,56.06,1.3,6.97,3.47,14.14,11.51,16.59,2.98.91,3.78,4.21,2.2,7.23-2.65,5.08-5.62,9.98-8.41,14.99-10.73,19.27-18.31,40.14-27.13,60.39-27.12,62.25-43.8,127.5-49.28,195.88-1.4,17.38-2.39,34.86-.64,52.33-.24,1.92-.68,3.83-.7,5.75-.51,35.55,2.31,70.81,9.21,105.61,4.72,23.81,11.62,46.95,22.1,68.68,11.92,24.72,29.85,42.61,54.44,52.52,19.7,7.94,40.19,12.51,61,15.63,24.04,3.6,48.21,3.79,72.38,2.85,11.37-.44,22.77-1.59,34.01-3.44,8.96-1.48,17.85-3.87,26.26-7.84,18.54-8.76,31.63-22.53,36.21-44.22,12.3-33.77-7.38-77.47-31.19-91.68-7.17-4.28-14.46-8.28-22.41-10.7-9.63-2.93-19.28-5.79-28.9-8.76-5.38-1.66-7.58-3.88-7.37-7.16.23-3.64,4.05-5.46,10.19-3.87,15.49,4.02,31.04,8.05,45.39,15.74,31.51,16.88,46.6,45.06,48.55,81.8.38,7.22-.69,14.52-1.09,21.79-4.93,18.02-12.74,34.09-26.98,45.94-1.98,1.65-5.34,3.27-3.82,6.62,1.29,2.84,4.71,2.42,7.39,2.61,2.72.19,5.46.04,8.19.2,19.62,1.13,39.11-1.28,58.54-3.29,15.77-1.63,31.43-4.59,46.71-9.74,26.62-8.98,50.19-32.18,50.74-77.37,1.93-14.75.92-29.27-5.86-42.43-13.99-27.14-33.87-46.48-63.72-51.78-2.17-.38-4.18-1.76-6.26-2.68-2.05-9.41-6.26-18.16-7.31-27.88-.24-2.24-2.12-3.04-3.96-3.2-2.25-.2-4.54-.2-6.8-.04-2.55.18-4.28,1.78-4.51,4.48-.62,7.21-3.34,14.12-2.7,21.5ZM244.66,335.13c-7.17-14.3-13.58-27.12-20.03-39.91-1.73-3.42-3.5-6.82-5.46-10.1-1.37-2.28-5.52-2.12-7.14,0-1.33,1.74-1.27,3.59-.34,5.35,6.48,12.27,12.89,24.59,19.64,36.69,2.36,4.24,6.02,7.27,13.33,7.96ZM191.83,270.61c.42-.08,1.81-.08,3.01-.59,7.53-3.19,15.03-6.48,22.52-9.78.82-.36,1.65-.84,2.32-1.46,1.1-1.01,1.27-2.29.8-3.79-.96-3.06-2.63-5.18-5.89-4.53-8.97,1.79-17.36,5.18-24.63,11.2-.98.81-1.62,2.2-2.17,3.45-.86,1.97,1.17,5.37,4.04,5.49ZM251.95,330.27c1.75-7.5,1.87-7.57-.88-13.04-5.78-11.53-11.67-23.01-17.6-34.46-.86-1.65-2.07-3.16-3.35-4.47-.39-.4-1.68-.19-2.35.18-.73.4-1.66,1.26-1.72,1.99-.12,1.33.03,2.9.61,4.06,7.34,14.49,14.77,28.93,22.23,43.34.62,1.19,1.32,2.63,3.05,2.4ZM218.58,320.09c-3.45-10.36-8.55-19.8-13.45-29.34-.94-1.82-2.72-2.5-4.54-1.24-1.24.86-1.6,2.42-1.03,3.79,4.33,10.48,10.79,19.29,19.03,26.79Z"/>
      <path class="cls-2" d="M335.04,43.68c-1.92-1.3-3.98-2.42-5.74-3.93-3.46-2.98-3.79-4.96-1.8-8.67,5.97-11.13,15.44-16.37,27.03-17.1,19.49-1.22,39.02,16.44,41.18,37.11,1.66,15.89-3.06,28.61-16.81,36.76-6.13,3.63-6.63,5.38-3.26,11.38,8.18,14.56,12.09,30.38,12.7,47.14.3,8.26,3.01,14.79,8.63,20.59,11.58,11.95,20.83,25.8,27.28,41.6,7.7,18.87,10.08,38.29,4.36,58.29-1.32,4.62-3.13,9.14-5.23,13.43-3.5,7.18-3.35,13.57,1.18,20.41,7.38,11.13,13.3,23.2,18.72,35.57,7.24,16.54,9.12,33.52,4.55,51.12-5.93,22.87-19.77,38.47-40.91,45-20.86,6.44-39.88.02-55.83-15.26-12.49-11.96-12.83-27.93-2.13-41.54,7.05-8.97,16.13-14.15,26.56-16.92,6.19-1.64,12.51-2.76,18.69-4.45,5.73-1.56,9.31-4.74,9.8-12.04.48-7.18,2.93-14.2,4.38-21.32.77-3.79,1.46-7.63,1.82-11.48.29-3.19-1.19-5.58-4.09-6.8-4.32-1.82-8.88-2.07-13.44-2.44-33.23-2.73-66.45-5.56-99.69-8.25-8.2-.66-16.42-1.06-24.63-1.35-6.78-.24-6.82-.11-9.99,8.73-.41,1.15-.75,1.77-.05,1.92-5.06-.97-5.49-4.34-6.73-6.71-7.57-14.42-14.84-28.99-20.98-44.21-5.4-13.36-7.5-13.98-21.12-9.93-9.77,2.91-19.02,6.93-26.88,13.91-6.46,5.73-7.38,9.33-4.02,17.88,2.28,5.8,5.34,11.25,8.06,16.85,1.85,3.8,4.8,7.22,3.66,12.21-15.7,5.61-31.68,8.44-48.28,5.93-2.68-.41-5.47-.54-8.14-.22-2.39.28-4.18,1.9-4.13,4.83.03,2.17,1.34,3.59,3,4.45,1.2.62,2.62.89,3.97,1,15.93,1.31,31.72,2.6,47.55-2.23,13.55-4.14,13.84-3.51,22.92,8.5,6.16,8.14,13.49,14.36,22.74,18.08,3.82,1.54,7.5,3.58,11.08,5.7,5.26,3.11,8.06,7.57,6.71,14.41-1.68,8.56-3.19,17.16-4.45,25.8-.85,5.86-4,9.5-8.57,12.34-8.36,5.18-17.39,8.54-26.73,10.93-14.24,3.65-28.68,5.72-43.35,6.09-6.37.16-12.82-.08-19.04,1.95-4.6,1.5-5.04,3.55-2.11,9.91,6.08,2.82,12.14,5.73,18.26,8.44,11.34,5.02,23.42,6.96,35.45,8.29,7.94.88,16.14,1.23,24.18-1.43,3.76-1.24,8.02-.78,12.05-1.09-.6,4.76-1.38,9.5-1.75,14.27-.55,7.11.86,9.01,7.73,11.14,1.73.54,3.53.83,5.3,1.23.4,3.61,1.87,6.46,5.24,7.73,5.55,2.08,11.12,3.85,17.18,3.54,14.94-.75,29.53,4.31,44.51,3.21.87-.06,1.78.3,2.66.52,17.01,4.17,34.25,1.38,51.38,1.85,4.73.13,7.4-3.04,8.14-7.98,2.64-1.33,4.25-3.7,5.64-6.3,8.03,3.94,16.11,7.62,25.29,5.14,2.08.92,4.09,2.29,6.26,2.68,29.85,5.3,49.73,24.64,63.72,51.78,6.78,13.16,7.79,27.67,5.86,42.43-3.04.21-4.72,2.27-6.41,4.75-3.22,4.72-6.87,9.23-11.68,12.1-15.25,9.09-31.25,15.44-49.15,15.43-13.14,0-26.42-1.66-39.37,2.56-2.1.68-4.53.26-6.81.26-9.12,0-18.23-.05-27.35-.08.4-7.26,1.47-14.57,1.09-21.79-1.95-36.73-17.04-64.91-48.55-81.8-14.34-7.68-29.9-11.71-45.39-15.74-6.14-1.59-9.96.23-10.19,3.87-.21,3.28,1.99,5.5,7.37,7.16,9.62,2.96,19.27,5.83,28.9,8.76,7.95,2.42,15.23,6.42,22.41,10.7,23.81,14.21,43.49,57.91,31.19,91.68-10.18-.59-19.9,1.4-29.4,5.37-4.19,1.75-8.74,2.93-13.22,3.39-22.16,2.26-43.71-2.11-64.46-9.57-8.89-3.2-17.41-5.46-26.58-4.76-22.7,1.73-44.31-4.1-65.88-10.3-8.88-2.55-17.26-6.64-24.78-12.14-20.7-15.12-36.27-35.19-47.81-58.78-8.85-18.08-17.46-36.28-23.57-55.71-3.46-11.01-8.21-21.54-8.67-33.49-.16-4.28-1.76-8.49-2.69-12.74-.97-4.41-3.76-6.43-7.83-6.8-1.75-17.47-.76-34.95.64-52.33,5.49-68.38,22.17-133.63,49.28-195.88,8.82-20.24,16.39-41.12,27.13-60.39,2.79-5.01,5.75-9.91,8.41-14.99,1.58-3.02.78-6.32-2.2-7.23-8.04-2.45-10.21-9.63-11.51-16.59-5.26-28.14,12.65-50.94,30.96-56.06,17.04-4.77,32.2,3.18,38.24,20.93,1.68,4.93,1.56,5.36-3.18,9.64-1.03.93-2.27,1.6-3.41,2.39-1.66-2.15-3.3-4.31-4.98-6.44-2.33-2.97-5.1-5.16-8.9-5.42-.82-2.27-1.84-4.61-4.11-5.36-15.46-5.1-31.59,7.06-33.55,25.19-.14,4.31-.74,8.67-.33,12.91.84,8.68,6.8,12.11,14.5,8.91,5.54-2.3,10.17-5.94,14.84-9.79,5.59-4.61,11.22-10,19.33-8.48,2.6,1.73,5.18,1.74,7.58-.32,19.03-16.37,42.15-19.84,65.22-22.83,19.03-2.46,38.23-2.38,57.31-.15,19.07,2.23,37.99,5.39,53.99,18.15,3.02,2.41,5.86,2.23,8.51-.68,3.77-.31,7.13.56,9.86,3.59,4.05,4.49,8.59,8.47,11.85,13.78,1.71,2.79,3.68,5.48,5.87,7.85,4.48,4.85,8.02,4.76,12.9.2,4.39-4.09,7.13-8.7,4.63-15.15,3.95-10.58-1.18-18.03-8.35-23.75-7.42-5.92-15.77-10.15-24.98-3.18-9.23-.47-9.44-.32-12.27,8.76ZM420.28,559.49c3.41-2.68,5.76,1.82,8.75,1.44,1.21-.16,2.71-.97,3.34-2,.62-1,.75-2.88.29-3.98-.72-1.69-2.03-3.14-3.27-4.51-1.62-1.78-3.6-3.02-6.03-2.14-2.72.98-2.82,3.4-2.39,5.87.34,1.92.53,3.77-.54,5.51-2.07-.9-4.07-2.15-6.23-2.61-1.94-.42-3.66.97-3.83,3.11-.34,4.22,3.36,9.32,7.04,8.85,4.68-.6,2.98-4.93,2.92-8.09,0-.48-.03-.97-.05-1.45ZM347.23,249.42c6.71-10.23,6.26-21.78,5.18-33.32-1.46-15.52-9.01-27.09-21.38-35.07-3.85-2.48-8.02-4.68-12.31-6.06-17.23-5.56-34.82-5.9-52.5-2.97-1.19.2-2.21,1.57-3.3,2.39-9.44,4-14.99,12.33-20.13,20.93-11.72,19.58-4.19,37.1,8.41,47.66,7.24,6.06,15.52,9.99,24.42,12.64,10.24,3.05,20.64,3.47,31.16,3.43,22.44-.1,22.44-.03,40.46-9.63ZM341.12,159.67c4.69.2,8.87-1.44,12.62-4.27,3.51-2.64,3.89-7.7,1.06-11.39-5.38-7.01-15.98-6.23-20.78,1.62-1.82,2.97-2.2,6.27-.71,9.55,1.56,3.46,4.48,4.43,7.82,4.48ZM216.73,191.19c-4.61-.26-8.32,2.44-10.51,7.69-2.02,4.84-1.88,9.44,1.48,13.59,1.97,2.44,6.04,3.12,8.82,1.52,4.77-2.75,7.31-7.26,8.1-12.77.7-4.85-3.37-9.77-7.89-10.03ZM372.57,213.09c4.86-.29,8.73-4.07,10.49-10.02,1.08-3.65.24-6.8-2.2-9.33-2.52-2.61-5.72-2.96-8.92-1.64-5.64,2.32-8.66,9.46-6.76,15.63.96,3.12,4.31,5.55,7.39,5.36ZM242.82,153.93c2.57,0,3.48.06,4.38-.01,4.84-.4,7.82-2.5,8.32-5.9.65-4.43-1.64-7.32-4.72-9.67-3.61-2.75-7.66-2.79-11.72-1.6-3.42,1-5.59,4.9-5.37,9.07.19,3.55,2.35,6.72,5.39,7.53,1.74.46,3.57.56,3.72.58ZM102.35,294.02c-1.44.31-2.55,1.33-2.59,2.76-.15,5.49,1.88,10.01,6.15,13.13,1.12.82,2.66.25,3.42-1.05,2.71-4.58-.83-13.85-5.7-15.04-.39-.1-.86.13-1.29.2ZM117.66,308.76c.83-.34,1.84-.47,2.47-1.06,3.21-2.99,4.31-7.01,2.55-10.22-.56-1.03-2.25-2.11-3.28-1.98-3.87.49-4.46,4.28-5.62,7.34-.31.82-.25,1.92-.07,2.82.43,2.22,2.03,2.93,3.95,3.1Z"/>
      <path class="cls-7" d="M11.76,416.42c4.07.36,6.86,2.39,7.83,6.8.93,4.25,2.53,8.46,2.69,12.74.45,11.95,5.2,22.48,8.67,33.49,6.11,19.43,14.73,37.63,23.57,55.71,11.55,23.59,27.11,43.66,47.81,58.78,7.52,5.49,15.9,9.58,24.78,12.14,21.57,6.2,43.19,12.03,65.88,10.3,9.17-.7,17.69,1.57,26.58,4.76,20.75,7.46,42.3,11.83,64.46,9.57,4.48-.46,9.03-1.64,13.22-3.39,9.5-3.97,19.22-5.96,29.4-5.37-4.58,21.69-17.67,35.46-36.21,44.22-8.4,3.97-17.3,6.37-26.26,7.84-11.24,1.85-22.64,3-34.01,3.44-24.17.94-48.34.75-72.38-2.85-20.81-3.12-41.29-7.68-61-15.63-24.58-9.91-42.52-27.8-54.44-52.52-10.48-21.73-17.38-44.87-22.1-68.68-6.9-34.79-9.72-70.05-9.21-105.61.03-1.92.46-3.84.7-5.75Z"/>
      <path class="cls-6" d="M368.98,460.41c.04,2.5-.14,5.42-3.01,5.49-5.46.14-10.94-.31-16.39-.71-21.4-1.59-42.81-3.22-64.2-4.91-14.08-1.12-28.15-2.38-42.87-3.63,2.94-17.77,5.7-34.95,8.62-52.09,5.14-30.1,10.38-60.18,15.57-90.28.41-2.39.74-4.79,1.25-7.16.68-3.2,2.43-5.06,5.74-4.88,5.02.26,10.05.26,15.06.69,16.84,1.44,33.66,3.1,50.49,4.53,16.38,1.4,32.78,2.62,49.17,3.95,3.13.25,6.25.65,9.69,1.02-.25,9.79-3.36,18.47-5.17,27.42-.44,2.16-1.75,3.24-3.65,3.76-2.65.72-5.26,1.74-7.95,2.19-12.85,2.13-24.43,7.49-35.14,15.2-1.48.2-2.43,1.03-2.79,2.6,0,0-.21.21-.21.21-1.43.3-2.28,1.21-2.51,2.75-1.58,2.15-3.16,4.29-4.74,6.44-2.37.06-4.5.69-5.84,3-9.58,16.56-10.91,33.74-1.95,50.86,9.01,17.22,22.47,28.91,40.82,33.56Z"/>
      <path class="cls-7" d="M339.81,609.09c9.12.03,18.23.07,27.35.08,2.28,0,4.71.42,6.81-.26,12.95-4.22,26.23-2.57,39.37-2.56,17.89.01,33.9-6.33,49.15-15.43,4.81-2.87,8.46-7.37,11.68-12.1,1.69-2.48,3.37-4.54,6.41-4.75-.55,45.19-24.12,68.39-50.74,77.37-15.28,5.15-30.94,8.11-46.71,9.74-19.43,2.01-38.92,4.41-58.54,3.29-2.72-.16-5.46-.01-8.19-.2-2.68-.19-6.1.23-7.39-2.61-1.52-3.35,1.84-4.98,3.82-6.62,14.23-11.86,22.05-27.93,26.98-45.94Z"/>
      <path class="cls-7" d="M233.4,442.84c-4.03.31-8.29-.16-12.05,1.09-8.03,2.65-16.23,2.31-24.18,1.43-12.03-1.33-24.11-3.28-35.45-8.29-6.13-2.71-12.18-5.62-18.26-8.44,14.94-.37,29.83-.39,44.74-2.51,15.43-2.19,30.19-6.11,44.28-13.06,1.55-.77,3.28-1.12,5.92-2-.51,11.42-2.71,21.61-5,31.79Z"/>
      <path class="cls-7" d="M373.81,478.35c-.75,4.94-3.41,8.11-8.14,7.98-17.13-.47-34.37,2.32-51.38-1.85-.88-.22-1.79-.58-2.66-.52-14.98,1.1-29.58-3.96-44.51-3.21-6.07.3-11.63-1.46-17.18-3.54-3.38-1.27-4.84-4.12-5.24-7.73,2.26-.15,4.54-.57,6.78-.41,19.48,1.43,38.96,2.96,58.44,4.48,3.17.25,6.33.65,9.51.88,18.13,1.32,36.26,2.61,54.39,3.91Z"/>
      <path class="cls-1" d="M142.93,57.43c-8.11-1.52-13.73,3.87-19.33,8.48-4.67,3.85-9.31,7.5-14.84,9.79-7.71,3.2-13.67-.23-14.5-8.91-.41-4.25.19-8.61.33-12.91,3.83,1.49,7.1,1.03,9.5-2.91,4.75-7.82,10.96-12.72,20.3-11.96,3.42.28,5.95-2.03,7.87-4.95,3.8.25,6.56,2.44,8.9,5.42,1.67,2.13,3.32,4.29,4.98,6.44-2.17,3.49-4.68,6.88-3.2,11.52Z"/>
      <path class="cls-5" d="M368.98,460.41c-18.35-4.64-31.82-16.34-40.82-33.56-8.95-17.12-7.63-34.29,1.95-50.86,1.34-2.31,3.46-2.94,5.84-3-1.08,3.17-2.22,6.32-3.22,9.52-4.79,15.31-1.31,28.68,8.72,40.31,6.24,7.24,13.97,12.34,22.3,16.49,8.08,4.03,8.08,4.11,7.21,12.76-.29,2.86-.21,5.85-1.97,8.33Z"/>
      <path class="cls-1" d="M380.65,61.86c2.5,6.45-.25,11.06-4.63,15.15-4.88,4.56-8.42,4.65-12.9-.2-2.19-2.38-4.16-5.06-5.87-7.85-3.25-5.3-7.79-9.29-11.85-13.78-2.73-3.03-6.09-3.9-9.86-3.59-.16-2.64-.33-5.27-.49-7.91,2.83-9.08,3.04-9.23,12.27-8.76.01,5.44,2.9,7.59,7.67,7.62,8.18.04,13.27,4.65,16.18,12.45.49,1.32.78,2.76,1.43,3.98,1.83,3.5,4.71,4.01,8.06,2.89Z"/>
      <path class="cls-7" d="M404.73,477.19c-9.18,2.49-17.26-1.2-25.29-5.14-.65-7.38,2.08-14.29,2.7-21.5.23-2.7,1.96-4.3,4.51-4.48,2.26-.16,4.55-.16,6.8.04,1.85.16,3.72.96,3.96,3.2,1.05,9.72,5.27,18.47,7.31,27.88Z"/>
      <path class="cls-2" d="M244.66,335.13c-7.31-.69-10.96-3.72-13.33-7.96-6.75-12.1-13.15-24.42-19.64-36.69-.93-1.76-.99-3.61.34-5.35,1.61-2.12,5.77-2.29,7.14,0,1.96,3.27,3.73,6.68,5.46,10.1,6.46,12.79,12.86,25.61,20.03,39.91Z"/>
      <path class="cls-8" d="M191.83,270.61c-2.87-.12-4.9-3.52-4.04-5.49.55-1.25,1.19-2.64,2.17-3.45,7.27-6.02,15.66-9.41,24.63-11.2,3.26-.65,4.93,1.47,5.89,4.53.47,1.5.3,2.78-.8,3.79-.67.62-1.5,1.1-2.32,1.46-7.49,3.29-14.99,6.59-22.52,9.78-1.2.51-2.59.51-3.01.59Z"/>
      <path class="cls-5" d="M251.95,330.27c-1.73.24-2.44-1.21-3.05-2.4-7.46-14.42-14.89-28.86-22.23-43.34-.59-1.16-.73-2.73-.61-4.06.06-.74.99-1.59,1.72-1.99.67-.37,1.96-.58,2.35-.18,1.28,1.31,2.49,2.82,3.35,4.47,5.93,11.45,11.82,22.92,17.6,34.46,2.74,5.47,2.62,5.54.88,13.04Z"/>
      <path class="cls-7" d="M218.58,320.09c-8.24-7.5-14.7-16.31-19.03-26.79-.57-1.37-.21-2.94,1.03-3.79,1.82-1.26,3.61-.58,4.54,1.24,4.9,9.53,10,18.97,13.45,29.34Z"/>
      <path class="cls-3" d="M200.73,276.17c3.72-4.26,8.27-6.27,13.75-5.85l.28.37c-3.99,3.61-8.44,5.97-13.83,5.75l-.19-.26Z"/>
      <path class="cls-3" d="M214.48,270.31c1.96-3.92,5.43-2.43,8.42-2.64l-.06-.06c-2.2,2.49-4.98,3.26-8.08,3.07,0,0-.28-.37-.28-.37Z"/>
      <path class="cls-3" d="M200.93,276.43c-1.03.84-1.98,1.88-3.14,2.43-.58.27-1.53-.38-2.32-.61.41-.57.74-1.5,1.26-1.64,1.29-.34,2.67-.32,4.01-.44,0,0,.19.26.19.26Z"/>
      <path class="cls-3" d="M222.9,267.67c.33-.44.66-.87,1-1.31-.05.25-.01.58-.15.72-.25.24-.6.36-.9.53,0,0,.06.06.06.06Z"/>
      <path class="cls-5" d="M343.4,363.6c.36-1.56,1.31-2.4,2.79-2.6-.33,1.59-1.17,2.58-2.79,2.6Z"/>
      <path class="cls-5" d="M340.68,366.55c.24-1.54,1.08-2.45,2.51-2.75-.08,1.7-.94,2.6-2.51,2.75Z"/>
      <path class="cls-6" d="M347.23,249.42c-18.03,9.6-18.03,9.53-40.46,9.63-10.52.05-20.92-.37-31.16-3.43-8.91-2.66-17.19-6.58-24.42-12.64-12.6-10.56-20.14-28.09-8.41-47.66,5.15-8.59,10.7-16.93,20.13-20.93,1.29,4.04,4.2,4.54,7.62,4.01,13.15-2.03,26.18-1.18,39.14,1.71,26.86,5.99,39.91,26.19,35.5,55.01-.44,2.84-1.07,5.66-1.39,8.52-.32,2.82,1.87,4.14,3.45,5.78ZM299.37,235.25c3.82-.78,8.86-1.25,13.55-2.88,7.29-2.53,12.66-7.74,14.08-16.09,1.49-8.69-2.68-14.92-9.19-19.42-10-6.92-20.74-9.27-32.36-5.04-5.28,1.92-9.78,5.03-13.27,9.65-5.61,7.41-5.48,15.15.47,22.22,6.8,8.09,15.79,10.79,26.73,11.56Z"/>
      <path class="cls-9" d="M347.23,249.42c-1.58-1.65-3.77-2.97-3.45-5.78.32-2.86.96-5.67,1.39-8.52,4.41-28.82-8.64-49.02-35.5-55.01-12.96-2.89-26-3.74-39.14-1.71-3.42.53-6.33.03-7.62-4.01,1.1-.83,2.12-2.2,3.3-2.4,17.68-2.93,35.27-2.6,52.5,2.97,4.29,1.38,8.46,3.58,12.31,6.06,12.38,7.98,19.93,19.55,21.38,35.07,1.08,11.55,1.53,23.1-5.18,33.32Z"/>
      <path class="cls-9" d="M380.65,61.86c-3.35,1.12-6.23.61-8.06-2.89-.64-1.23-.93-2.66-1.43-3.98-2.92-7.79-8-12.41-16.18-12.45-4.77-.02-7.66-2.18-7.67-7.62,9.22-6.97,17.56-2.74,24.98,3.18,7.17,5.72,12.3,13.17,8.35,23.75Z"/>
      <path class="cls-9" d="M132.25,34.05c-1.93,2.92-4.45,5.23-7.87,4.95-9.34-.76-15.54,4.14-20.3,11.96-2.39,3.94-5.67,4.4-9.5,2.91,1.96-18.12,18.09-30.29,33.55-25.19,2.27.75,3.29,3.09,4.11,5.36Z"/>
      <path class="cls-6" d="M341.11,159.68c-3.34-.06-6.26-1.03-7.82-4.49-1.48-3.29-1.1-6.58.71-9.55,4.8-7.85,15.4-8.63,20.78-1.62,2.83,3.69,2.45,8.75-1.06,11.39-3.75,2.83-7.93,4.47-12.62,4.27Z"/>
      <path class="cls-9" d="M216.73,191.19c4.52.26,8.59,5.18,7.89,10.03-.8,5.52-3.33,10.02-8.1,12.77-2.78,1.6-6.85.92-8.82-1.52-3.36-4.15-3.5-8.75-1.48-13.59,2.19-5.25,5.9-7.96,10.51-7.69Z"/>
      <path class="cls-9" d="M372.57,213.09c-3.09.19-6.43-2.24-7.39-5.36-1.9-6.17,1.12-13.32,6.76-15.63,3.2-1.31,6.4-.97,8.92,1.64,2.44,2.53,3.28,5.68,2.2,9.33-1.76,5.95-5.63,9.73-10.49,10.02Z"/>
      <path class="cls-6" d="M242.82,153.93c-.15-.02-1.98-.11-3.72-.58-3.04-.81-5.2-3.98-5.39-7.53-.23-4.17,1.95-8.07,5.37-9.07,4.07-1.19,8.11-1.15,11.72,1.6,3.09,2.35,5.38,5.24,4.72,9.67-.5,3.4-3.48,5.5-8.32,5.9-.9.08-1.81.01-4.38.01Z"/>
      <path class="cls-4" d="M420.43,559.68c1.07-1.74.87-3.59.54-5.51-.43-2.48-.33-4.89,2.39-5.87,2.43-.87,4.41.37,6.03,2.14,1.24,1.37,2.56,2.82,3.27,4.51.47,1.1.33,2.97-.29,3.98-.63,1.03-2.13,1.84-3.34,2-2.99.39-5.34-4.12-8.75-1.44l.16.19Z"/>
      <path class="cls-4" d="M102.35,294.02c.43-.07.89-.3,1.29-.2,4.87,1.2,8.4,10.47,5.7,15.04-.77,1.3-2.3,1.87-3.42,1.05-4.28-3.12-6.31-7.64-6.15-13.13.04-1.43,1.15-2.45,2.59-2.76Z"/>
      <path class="cls-4" d="M420.28,559.49c.02.48.04.97.05,1.45.06,3.16,1.76,7.49-2.92,8.09-3.67.47-7.38-4.63-7.04-8.85.17-2.15,1.89-3.53,3.83-3.11,2.15.46,4.16,1.71,6.23,2.61,0,0-.15-.19-.15-.19Z"/>
      <path class="cls-4" d="M117.66,308.76c-1.92-.16-3.53-.87-3.96-3.09-.17-.91-.24-2,.07-2.82,1.16-3.06,1.74-6.85,5.62-7.34,1.04-.13,2.72.94,3.28,1.98,1.76,3.21.66,7.23-2.55,10.22-.63.59-1.64.72-2.47,1.06Z"/>
      <path class="cls-9" d="M299.37,235.25c-10.94-.77-19.93-3.47-26.73-11.56-5.95-7.07-6.08-14.81-.47-22.22,3.5-4.62,7.99-7.73,13.27-9.65,11.62-4.23,22.36-1.87,32.36,5.04,6.51,4.5,10.68,10.73,9.19,19.42-1.43,8.35-6.79,13.56-14.08,16.09-4.69,1.63-9.73,2.1-13.55,2.88Z"/>
    </g>
  </g>
</svg>